<?xml version="1.0" encoding="UTF-8" standalone="no"?>
<!-- Created with Inkscape (http://www.inkscape.org/) -->

<svg
   xmlns:dc="http://purl.org/dc/elements/1.1/"
   xmlns:cc="http://creativecommons.org/ns#"
   xmlns:rdf="http://www.w3.org/1999/02/22-rdf-syntax-ns#"
   xmlns:svg="http://www.w3.org/2000/svg"
   xmlns="http://www.w3.org/2000/svg"
   xmlns:sodipodi="http://sodipodi.sourceforge.net/DTD/sodipodi-0.dtd"
   xmlns:inkscape="http://www.inkscape.org/namespaces/inkscape"
   width="133.65863mm"
   height="65.433929mm"
   viewBox="0 0 133.65863 65.433929"
   version="1.1"
   id="svg8"
   inkscape:version="0.92.2 (5c3e80d, 2017-08-06)"
   sodipodi:docname="Logo.svg">
  <defs
     id="defs2" />
  <sodipodi:namedview
     id="base"
     pagecolor="#ffffff"
     bordercolor="#666666"
     borderopacity="1.0"
     inkscape:pageopacity="0.0"
     inkscape:pageshadow="2"
     inkscape:zoom="1.4"
     inkscape:cx="65.066594"
     inkscape:cy="189.87688"
     inkscape:document-units="mm"
     inkscape:current-layer="layer1"
     showgrid="false"
     inkscape:window-width="1920"
     inkscape:window-height="986"
     inkscape:window-x="-11"
     inkscape:window-y="-11"
     inkscape:window-maximized="1"
     fit-margin-top="0"
     fit-margin-left="0"
     fit-margin-right="0"
     fit-margin-bottom="0" />
  <metadata
     id="metadata5">
    <rdf:RDF>
      <cc:Work
         rdf:about="">
        <dc:format>image/svg+xml</dc:format>
        <dc:type
           rdf:resource="http://purl.org/dc/dcmitype/StillImage" />
        <dc:title></dc:title>
      </cc:Work>
    </rdf:RDF>
  </metadata>
  <g
     inkscape:label="Layer 1"
     inkscape:groupmode="layer"
     id="layer1"
     transform="translate(-6.7437497,-121.25685)">
    <g
       id="g4894">
      <g
         aria-label="Kitsch
"
         style="font-style:normal;font-weight:normal;font-size:22.57777786px;line-height:1.25;font-family:sans-serif;letter-spacing:0px;word-spacing:0px;fill:#000000;fill-opacity:1;stroke:none;stroke-width:0.26458332"
         id="text4506">
        <path
           d="m 30.091039,142.37467 q 0,-0.64492 0.434082,-1.07901 0.446485,-0.44648 1.091407,-0.44648 0.657324,0 1.103808,0.43408 0.458887,0.43408 0.458887,1.09141 0,0.64492 -0.458887,1.079 -0.446484,0.42168 -1.103808,0.42168 -0.657325,0 -1.091407,-0.42168 -0.434082,-0.43408 -0.434082,-1.079 z m 0.285254,18.5539 v -13.71699 h 2.43086 v 13.71699 z"
           style="font-style:normal;font-variant:normal;font-weight:normal;font-stretch:normal;font-size:25.39999962px;font-family:'Microsoft YaHei UI';-inkscape-font-specification:'Microsoft YaHei UI';stroke-width:0.26458332"
           id="path4898"
           inkscape:connector-curvature="0" />
        <path
           d="m 43.721216,160.79215 q -0.79375,0.43408 -2.145606,0.43408 -3.683496,0 -3.683496,-4.08037 v -7.9251 h -2.356445 v -2.00918 h 2.356445 v -3.29902 l 2.418457,-0.76895 v 4.06797 h 3.410645 v 2.00918 h -3.410645 v 7.49102 q 0,1.35185 0.458887,1.93476 0.458887,0.58291 1.525488,0.58291 0.818555,0 1.42627,-0.45888 z"
           style="font-style:normal;font-variant:normal;font-weight:normal;font-stretch:normal;font-size:25.39999962px;font-family:'Microsoft YaHei UI';-inkscape-font-specification:'Microsoft YaHei UI';stroke-width:0.26458332"
           id="path4900"
           inkscape:connector-curvature="0" />
        <path
           d="m 45.842018,157.96441 q 1.835546,1.32705 3.956347,1.32705 2.840137,0 2.840137,-1.86035 0,-0.79375 -0.620117,-1.30224 -0.620118,-0.5209 -2.517676,-1.22784 -2.282031,-0.91777 -2.96416,-1.81074 -0.682129,-0.90537 -0.682129,-2.18281 0,-1.82314 1.53789,-2.91455 1.550293,-1.10381 3.80752,-1.10381 1.74873,0 3.249414,0.60772 v 2.34404 q -1.537891,-0.99219 -3.485059,-0.99219 -1.16582,0 -1.897558,0.5085 -0.731738,0.50849 -0.731738,1.33945 0,0.81855 0.520898,1.27744 0.533301,0.45889 2.344043,1.17822 2.294434,0.85577 3.100586,1.77354 0.806152,0.91777 0.806152,2.26963 0,1.88515 -1.550293,2.97656 -1.53789,1.079 -3.993554,1.079 -2.133203,0 -3.720703,-0.80615 z"
           style="font-style:normal;font-variant:normal;font-weight:normal;font-stretch:normal;font-size:25.39999962px;font-family:'Microsoft YaHei UI';-inkscape-font-specification:'Microsoft YaHei UI';stroke-width:0.26458332"
           id="path4902"
           inkscape:connector-curvature="0" />
        <path
           d="m 67.843773,160.30846 q -1.575098,0.94257 -3.795117,0.94257 -2.976563,0 -4.787305,-1.90996 -1.810742,-1.90996 -1.810742,-4.94853 0,-3.37344 1.947168,-5.43223 1.95957,-2.07119 5.233789,-2.07119 1.885156,0 3.224609,0.66973 v 2.40605 q -1.451074,-1.0666 -3.224609,-1.0666 -2.083594,0 -3.398242,1.45107 -1.302246,1.43868 -1.302246,3.84473 0,2.36885 1.227832,3.7083 1.240234,1.33945 3.33623,1.33945 1.773535,0 3.348633,-1.16582 z"
           style="font-style:normal;font-variant:normal;font-weight:normal;font-stretch:normal;font-size:25.39999962px;font-family:'Microsoft YaHei UI';-inkscape-font-specification:'Microsoft YaHei UI';stroke-width:0.26458332"
           id="path4904"
           inkscape:connector-curvature="0" />
        <path
           d="m 82.701778,160.92857 h -2.418457 v -7.88789 q 0,-4.14238 -3.075781,-4.14238 -1.575097,0 -2.616894,1.21543 -1.041797,1.20303 -1.041797,3.03857 v 7.77627 H 71.11799 v -20.30263 h 2.430859 v 8.84287 h 0.04961 q 1.575098,-2.57969 4.477246,-2.57969 4.626074,0 4.626074,5.59346 z"
           style="font-style:normal;font-variant:normal;font-weight:normal;font-stretch:normal;font-size:25.39999962px;font-family:'Microsoft YaHei UI';-inkscape-font-specification:'Microsoft YaHei UI';stroke-width:0.26458332"
           id="path4906"
           inkscape:connector-curvature="0" />
      </g>
      <g
         aria-label="Inventions"
         style="font-style:normal;font-weight:normal;font-size:22.57777786px;line-height:1.25;font-family:sans-serif;letter-spacing:0px;word-spacing:0px;fill:#000000;fill-opacity:1;stroke:none;stroke-width:0.26458332"
         id="text4512">
        <path
           d="m 17.03423,161.55488 v 19.21123 h -2.480469 c -2.22e-4,-13.54583 0.02195,-27.09039 0.02195,-40.63627 h 2.480469 v 10.62881 h 0.06201 c 0.14056,-0.22324 0.310059,-0.45888 0.508496,-0.70693 l 6.970117,-8.33438 h 3.063379 l -8.061523,9.21494 8.644433,9.99629 H 24.84485 l -7.218164,-8.73125 c -0.248047,-0.30592 -0.417545,-0.5457 -0.508496,-0.71933 h -0.06201 v 9.45058 z"
           style="letter-spacing:-0.59531248px"
           id="path4909"
           inkscape:connector-curvature="0"
           sodipodi:nodetypes="cccccccccccccccccc" />
        <path
           d="M 32.035597,180.76611 H 29.61714 v -7.80107 q 0,-4.2292 -3.088183,-4.2292 -1.599903,0 -2.629297,1.19063 -1.029395,1.19062 -1.029395,3.01376 v 7.82588 h -2.430859 v -13.71699 h 2.430859 v 2.26963 h 0.04961 q 1.550293,-2.59209 4.50205,-2.59209 2.257227,0 3.435449,1.45107 1.178223,1.43868 1.178223,4.2044 z"
           style="letter-spacing:-0.18785417px"
           id="path4911"
           inkscape:connector-curvature="0" />
        <path
           d="m 46.978603,167.04912 -5.432227,13.71699 h -2.455664 l -5.159374,-13.71699 h 2.654101 l 3.348633,9.79785 q 0.409277,1.17823 0.483691,1.97198 h 0.06201 q 0.124023,-1.0418 0.434082,-1.92237 l 3.509863,-9.84746 z"
           style="letter-spacing:-0.18785417px"
           id="path4913"
           inkscape:connector-curvature="0" />
        <path
           d="m 60.259695,174.52773 h -9.599414 q 0.06201,2.19522 1.203027,3.39825 1.141016,1.19062 3.187402,1.19062 2.306836,0 4.2292,-1.47588 v 2.17041 q -1.810743,1.27744 -4.799707,1.27744 -2.976563,0 -4.650879,-1.88515 -1.661914,-1.88516 -1.661914,-5.23379 0,-3.1502 1.823144,-5.19658 1.835547,-2.04639 4.55166,-2.04639 2.691309,0 4.204395,1.73633 1.513086,1.72392 1.513086,4.83691 z m -2.43086,-1.94716 q -0.0124,-1.86036 -0.880566,-2.87735 -0.868164,-1.01699 -2.443262,-1.01699 -1.451074,0 -2.517675,1.079 -1.0542,1.07901 -1.327051,2.81534 z"
           style="letter-spacing:0.111125px"
           id="path4915"
           inkscape:connector-curvature="0" />
        <path
           d="m 75.228825,180.76611 h -2.418457 v -7.80107 q 0,-4.2292 -3.088183,-4.2292 -1.599902,0 -2.629297,1.19063 -1.029395,1.19062 -1.029395,3.01376 v 7.82588 h -2.430859 v -13.71699 h 2.430859 v 2.26963 h 0.04961 q 1.550293,-2.59209 4.502051,-2.59209 2.257226,0 3.435449,1.45107 1.178222,1.43868 1.178222,4.2044 z"
           style="letter-spacing:0.46566668px"
           id="path4917"
           inkscape:connector-curvature="0" />
        <path
           d="m 86.190508,180.62969 q -0.79375,0.43408 -2.145606,0.43408 -3.683496,0 -3.683496,-4.08037 v -7.9251 h -2.356445 v -2.00918 h 2.356445 v -3.29902 l 2.418457,-0.76895 v 4.06797 h 3.410645 v 2.00918 h -3.410645 v 7.49102 q 0,1.35185 0.458887,1.93476 0.458887,0.58291 1.525488,0.58291 0.818555,0 1.42627,-0.45888 z"
           style="letter-spacing:0.46566668px"
           id="path4919"
           inkscape:connector-curvature="0" />
        <path
           d="m 89.248262,162.21221 q 0,-0.64492 0.434082,-1.07901 0.446485,-0.44648 1.091406,-0.44648 0.657325,0 1.103809,0.43408 0.458887,0.43408 0.458887,1.09141 0,0.64492 -0.458887,1.079 -0.446484,0.42168 -1.103809,0.42168 -0.657324,0 -1.091406,-0.42168 -0.434082,-0.43408 -0.434082,-1.079 z m 0.285254,18.5539 v -13.71699 h 2.430859 v 13.71699 z"
           style="font-style:normal;font-variant:normal;font-weight:normal;font-stretch:normal;font-size:25.39999962px;font-family:'Microsoft YaHei UI';-inkscape-font-specification:'Microsoft YaHei UI';letter-spacing:-0.27781254px;stroke-width:0.26458332"
           id="path4921"
           inkscape:connector-curvature="0" />
        <path
           d="m 95.097208,174.05645 q 0,-3.39825 1.897558,-5.35782 1.897559,-1.97197 5.146974,-1.97197 3.08818,0 4.83691,1.89756 1.76114,1.88516 1.76114,5.22139 0,3.24941 -1.87276,5.24619 -1.87275,1.99677 -5.02295,1.99677 -3.075778,0 -4.911325,-1.93476 -1.835547,-1.93477 -1.835547,-5.09736 z m 2.480469,-0.0744 q 0,2.36885 1.190625,3.73311 1.203027,1.36425 3.224608,1.36425 2.08359,0 3.175,-1.32705 1.09141,-1.33945 1.09141,-3.83232 0,-2.50527 -1.09141,-3.84473 -1.09141,-1.33945 -3.175,-1.33945 -2.046386,0 -3.237011,1.40146 -1.178222,1.40147 -1.178222,3.84473 z"
           style="font-style:normal;font-variant:normal;font-weight:normal;font-stretch:normal;font-size:25.39999962px;font-family:'Microsoft YaHei UI';-inkscape-font-specification:'Microsoft YaHei UI';letter-spacing:-0.27781254px;stroke-width:0.26458332"
           id="path4923"
           inkscape:connector-curvature="0" />
        <path
           d="m 123.50602,180.76611 h -2.41846 v -7.80107 q 0,-4.2292 -3.08818,-4.2292 -1.59991,0 -2.6293,1.19063 -1.0294,1.19062 -1.0294,3.01376 v 7.82588 h -2.43085 v -13.71699 h 2.43085 v 2.26963 h 0.0496 q 1.5503,-2.59209 4.50205,-2.59209 2.25723,0 3.43545,1.45107 1.17823,1.43868 1.17823,4.2044 z"
           style="font-style:normal;font-variant:normal;font-weight:normal;font-stretch:normal;font-size:25.39999962px;font-family:'Microsoft YaHei UI';-inkscape-font-specification:'Microsoft YaHei UI';letter-spacing:-0.27781254px;stroke-width:0.26458332"
           id="path4925"
           inkscape:connector-curvature="0" />
        <path
           d="m 126.53963,177.80195 q 1.83555,1.32705 3.95635,1.32705 2.84013,0 2.84013,-1.86035 0,-0.79375 -0.62011,-1.30224 -0.62012,-0.5209 -2.51768,-1.22784 -2.28203,-0.91777 -2.96416,-1.81074 -0.68213,-0.90537 -0.68213,-2.18281 0,-1.82314 1.53789,-2.91455 1.5503,-1.10381 3.80752,-1.10381 1.74873,0 3.24942,0.60772 v 2.34404 q -1.53789,-0.99219 -3.48506,-0.99219 -1.16582,0 -1.89756,0.5085 -0.73174,0.50849 -0.73174,1.33945 0,0.81855 0.5209,1.27744 0.5333,0.45889 2.34404,1.17822 2.29444,0.85577 3.10059,1.77354 0.80615,0.91777 0.80615,2.26963 0,1.88515 -1.55029,2.97656 -1.53789,1.079 -3.99356,1.079 -2.1332,0 -3.7207,-0.80615 z"
           style="font-style:normal;font-variant:normal;font-weight:normal;font-stretch:normal;font-size:25.39999962px;font-family:'Microsoft YaHei UI';-inkscape-font-specification:'Microsoft YaHei UI';letter-spacing:-0.27781254px;stroke-width:0.26458332"
           id="path4927"
           inkscape:connector-curvature="0" />
      </g>
    </g>
    <g
       id="g4940"
       style="stroke-width:0.80000001;stroke-miterlimit:4;stroke-dasharray:none"
       transform="translate(0,1.5875)">
      <path
         style="fill:none;fill-opacity:1;stroke:#000000;stroke-width:0.80000001;stroke-miterlimit:4;stroke-dasharray:none;stroke-opacity:1"
         d="m 20.836778,131.0632 c -0.02863,3.07804 -2.316149,7.74797 -5.114983,7.74797 -2.798834,0 -4.918699,-5.24154 -5.020489,-7.74797 -0.279777,-6.88912 2.268904,-7.36998 5.067736,-7.36998 2.798832,0 5.130204,0.65394 5.067736,7.36998 z"
         id="path4930"
         inkscape:connector-curvature="0"
         sodipodi:nodetypes="sssss" />
      <path
         style="fill:none;fill-opacity:1;stroke:#000000;stroke-width:0.80000001;stroke-miterlimit:4;stroke-dasharray:none;stroke-opacity:1"
         d="m 19.060369,131.19684 c -0.112132,4.12098 -1.520826,7.79519 -3.338575,7.79519 -1.817749,0 -2.852402,-3.69133 -3.24408,-7.79519 -0.519719,-5.44543 1.473576,-7.46447 3.291327,-7.46447 1.817751,0 3.43307,2.25528 3.291328,7.46447 z"
         id="ellipse4933"
         inkscape:connector-curvature="0"
         sodipodi:nodetypes="sssss" />
      <ellipse
         ry="7.6124935"
         rx="1.3012005"
         cy="131.33047"
         cx="15.702225"
         id="ellipse4935"
         style="fill:none;fill-opacity:1;stroke:#000000;stroke-width:0.80000001;stroke-miterlimit:4;stroke-dasharray:none;stroke-opacity:1" />
    </g>
    <rect
       style="fill:none;fill-opacity:1;stroke:#000000;stroke-width:0.80000001;stroke-miterlimit:4;stroke-dasharray:none;stroke-opacity:1"
       id="rect4944"
       width="132.85863"
       height="64.633926"
       x="7.1437497"
       y="121.65685"
       ry="0" />
  </g>
</svg>
